<svg width="2000" height="2000" viewBox="0 0 2000 2000" fill="none" xmlns="http://www.w3.org/2000/svg">
<g clip-path="url(#clip0_516_576)">
<rect width="2000" height="2000" rx="1000" fill="#171717"/>
<path d="M1397.26 504.68C1393.35 511.19 1390.42 518.026 1388.47 525.188C1387.17 532.349 1386.19 539.51 1385.54 546.672H1378.7C1373.49 546.672 1368.94 546.021 1365.03 544.719C1361.12 542.766 1356.57 541.138 1351.36 539.836C1353.96 564.576 1355.59 589.641 1356.24 615.031C1356.89 640.422 1357.22 665.487 1357.22 690.227C1357.22 721.477 1356.89 752.727 1356.24 783.977C1355.59 814.576 1355.27 845.5 1355.27 876.75C1355.27 891.724 1354.29 906.698 1352.34 921.672C1351.03 935.995 1347.13 949.992 1340.62 963.664C1341.92 974.732 1342.9 985.474 1343.55 995.891C1344.2 1005.66 1344.52 1016.07 1344.52 1027.14C1344.52 1057.74 1342.57 1088.34 1338.66 1118.94C1335.41 1148.89 1331.18 1178.83 1325.97 1208.78C1324.02 1220.5 1322.06 1232.54 1320.11 1244.91C1318.81 1256.63 1316.53 1268.03 1313.27 1279.09C1311.97 1282.35 1310.02 1285.6 1307.41 1288.86C1305.46 1292.11 1303.83 1295.37 1302.53 1298.62C1294.72 1315.55 1285.93 1332.48 1276.16 1349.41C1267.05 1365.68 1255.98 1380.66 1242.96 1394.33C1233.2 1394.98 1223.76 1397.58 1214.64 1402.14C1205.53 1406.7 1197.06 1408.98 1189.25 1408.98C1182.09 1408.98 1176.23 1405.4 1171.67 1398.23L1161.91 1402.14C1158.65 1403.44 1155.07 1404.42 1151.16 1405.07C1129.03 1395.96 1107.87 1384.89 1087.69 1371.87C1068.16 1358.85 1051.88 1341.92 1038.86 1321.09H1034.95C1029.09 1321.09 1024.86 1319.78 1022.26 1317.18C1019 1313.92 1015.42 1310.02 1011.52 1305.46C1008.26 1300.25 1005.33 1295.7 1002.73 1291.79C994.914 1279.42 986.451 1267.05 977.336 1254.68C968.221 1242.31 957.479 1231.89 945.109 1223.43C939.901 1203.9 932.089 1187.3 921.672 1173.62C911.255 1159.3 900.513 1144 889.445 1127.73C880.982 1095.17 865.357 1064.9 842.57 1036.91C845.826 1033.65 847.453 1031.37 847.453 1030.07C847.453 1026.82 846.151 1024.21 843.547 1022.26C841.594 1019.65 840.617 1017.05 840.617 1014.45C840.617 1011.84 841.268 1009.89 842.57 1008.59C834.107 999.471 826.945 989.38 821.086 978.312C815.878 966.594 810.669 954.875 805.461 943.156C800.904 931.438 795.695 919.719 789.836 908C784.628 896.281 778.117 885.539 770.305 875.773C763.143 880.331 758.586 885.865 756.633 892.375C755.331 898.885 754.68 905.721 754.68 912.883C754.68 918.091 754.68 923.299 754.68 928.508C755.331 933.716 755.656 938.924 755.656 944.133C755.656 957.154 754.029 969.849 750.773 982.219C748.169 994.589 746.216 1007.28 744.914 1020.3C744.263 1029.42 743.938 1039.51 743.938 1050.58C744.589 1061.65 744.263 1072.71 742.961 1083.78C742.31 1094.85 740.682 1105.59 738.078 1116.01C735.474 1126.42 730.917 1135.21 724.406 1142.38C720.5 1179.48 715.617 1216.59 709.758 1253.7C703.898 1290.81 698.365 1327.92 693.156 1365.03C691.854 1371.54 690.552 1379.68 689.25 1389.45C687.948 1399.21 686.32 1408.98 684.367 1418.74C683.065 1429.16 681.763 1438.92 680.461 1448.04C679.81 1457.8 679.484 1465.62 679.484 1471.48C679.484 1477.99 681.112 1484.17 684.367 1490.03C687.622 1496.54 689.25 1502.73 689.25 1508.59C689.25 1513.14 687.622 1515.75 684.367 1516.4C681.763 1517.7 680.135 1520.3 679.484 1524.21C684.042 1538.53 686.32 1554.81 686.32 1573.04C686.32 1578.25 685.995 1583.46 685.344 1588.66C684.693 1594.52 683.716 1600.06 682.414 1605.27C681.112 1608.52 678.833 1611.45 675.578 1614.05C672.323 1617.31 670.695 1620.24 670.695 1622.84C670.695 1625.45 671.997 1627.4 674.602 1628.7C670.695 1632.61 665.812 1635.21 659.953 1636.52C654.094 1637.82 649.862 1641.4 647.258 1647.26C640.747 1642.05 634.237 1637.17 627.727 1632.61C621.216 1628.7 615.031 1624.15 609.172 1618.94L606.242 1617.96C601.685 1617.96 597.779 1619.26 594.523 1621.87C591.919 1625.12 588.339 1626.75 583.781 1626.75C582.479 1626.75 581.177 1626.42 579.875 1625.77C579.224 1625.77 578.247 1625.77 576.945 1625.77L571.086 1600.38C569.133 1591.92 566.529 1584.11 563.273 1576.95C568.482 1563.27 571.737 1547.65 573.039 1530.07C574.992 1513.14 576.945 1495.89 578.898 1478.31C580.852 1460.73 583.781 1443.81 587.688 1427.53C591.594 1411.91 598.755 1398.23 609.172 1386.52C609.172 1381.31 607.219 1377.73 603.312 1375.77C600.057 1373.82 598.43 1369.59 598.43 1363.08C598.43 1361.78 598.755 1359.5 599.406 1356.24C600.708 1352.99 601.685 1349.41 602.336 1345.5C603.638 1341.59 604.615 1338.01 605.266 1334.76C606.568 1330.85 607.544 1327.92 608.195 1325.97C613.404 1300.58 617.31 1274.54 619.914 1247.84C623.169 1221.15 631.307 1196.41 644.328 1173.62C643.677 1171.02 643.352 1167.11 643.352 1161.91C643.352 1150.84 644.328 1140.1 646.281 1129.68C648.885 1119.26 650.188 1108.52 650.188 1097.45C650.188 1088.34 649.211 1079.88 647.258 1072.06C649.211 1064.9 651.815 1058.07 655.07 1051.55C658.977 1044.39 660.93 1037.23 660.93 1030.07C660.93 1023.56 658.651 1019 654.094 1016.4C657.349 1013.79 659.302 1010.86 659.953 1007.61C661.255 1004.35 661.906 1001.1 661.906 997.844C662.557 994.589 663.208 991.659 663.859 989.055C665.161 985.799 667.766 983.195 671.672 981.242C671.021 974.732 670.37 968.547 669.719 962.688C669.719 956.828 669.719 950.643 669.719 944.133C669.719 920.044 671.021 896.281 673.625 872.844C676.229 848.755 677.531 824.341 677.531 799.602C677.531 775.513 675.578 752.076 671.672 729.289L682.414 707.805C675.904 702.596 671.672 694.133 669.719 682.414C667.766 670.695 666.464 658 665.812 644.328C665.161 630.656 663.859 617.31 661.906 604.289C660.604 590.617 657.023 579.549 651.164 571.086V562.297C651.164 551.88 650.513 541.789 649.211 532.023C647.909 522.258 647.258 512.492 647.258 502.727V493.938C650.513 492.635 652.792 490.357 654.094 487.102C656.047 483.846 657.349 480.591 658 477.336H661.906C669.719 477.336 677.531 476.685 685.344 475.383C693.156 474.081 700.969 473.43 708.781 473.43H721.477C729.289 479.289 736.125 486.125 741.984 493.938C747.844 501.75 755.005 508.911 763.469 515.422V533C769.328 540.812 773.885 549.276 777.141 558.391C780.396 567.505 783.651 576.945 786.906 586.711C790.812 596.477 794.719 605.917 798.625 615.031C802.531 624.146 808.065 631.958 815.227 638.469C813.924 644.979 813.273 650.188 813.273 654.094C813.273 662.557 813.924 671.021 815.227 679.484C817.18 687.948 818.482 696.086 819.133 703.898C821.737 707.154 824.016 711.385 825.969 716.594C827.922 721.151 831.177 724.081 835.734 725.383C838.99 750.773 845.5 774.862 855.266 797.648C865.682 820.435 873.169 844.198 877.727 868.938C882.935 874.146 886.841 880.656 889.445 888.469C892.049 895.63 894.654 902.792 897.258 909.953C900.513 917.115 903.768 923.951 907.023 930.461C910.93 936.32 916.464 940.552 923.625 943.156C927.531 958.781 932.414 974.406 938.273 990.031C944.133 1005.66 953.247 1019 965.617 1030.07C965.617 1043.09 967.57 1054.48 971.477 1064.25C976.034 1073.36 980.917 1082.15 986.125 1090.62C991.984 1098.43 997.193 1106.24 1001.75 1114.05C1006.31 1121.87 1009.24 1130.33 1010.54 1139.45C1019.65 1153.12 1030.07 1165.81 1041.79 1177.53C1054.16 1189.25 1066.53 1200.64 1078.9 1211.71C1091.92 1222.13 1104.61 1232.87 1116.98 1243.94C1129.35 1255.01 1140.75 1266.72 1151.16 1279.09C1158.33 1279.74 1164.18 1281.37 1168.74 1283.98C1173.95 1285.93 1179.81 1287.56 1186.32 1288.86C1190.88 1285.6 1194.46 1281.7 1197.06 1277.14C1200.32 1271.93 1203.25 1266.72 1205.85 1261.52C1208.46 1256.31 1211.06 1251.42 1213.66 1246.87C1216.92 1241.66 1220.83 1237.1 1225.38 1233.2C1225.38 1231.89 1225.06 1230.92 1224.41 1230.27C1224.41 1228.96 1224.41 1227.66 1224.41 1226.36C1224.41 1219.2 1225.38 1213.66 1227.34 1209.76C1229.94 1205.2 1232.87 1200.32 1236.12 1195.11V1169.72C1241.33 1159.95 1244.91 1149.54 1246.87 1138.47C1248.82 1127.4 1249.8 1116.33 1249.8 1105.27C1249.8 1096.15 1249.47 1087.04 1248.82 1077.92C1248.17 1068.16 1247.84 1058.39 1247.84 1048.62C1247.84 1042.77 1248.17 1036.91 1248.82 1031.05C1249.47 1024.54 1250.77 1018.68 1252.73 1013.47C1254.03 1012.17 1256.31 1010.21 1259.56 1007.61C1262.82 1004.35 1264.45 1002.4 1264.45 1001.75C1264.45 998.495 1263.47 995.24 1261.52 991.984C1259.56 988.729 1258.59 985.474 1258.59 982.219C1258.59 977.661 1260.54 974.081 1264.45 971.477V965.617C1264.45 962.362 1263.79 959.432 1262.49 956.828C1261.84 953.573 1259.89 951.294 1256.63 949.992C1259.89 946.086 1262.17 941.529 1263.47 936.32C1264.77 930.461 1265.42 924.602 1265.42 918.742C1266.07 912.232 1266.07 906.047 1265.42 900.188C1265.42 894.328 1265.42 888.794 1265.42 883.586C1265.42 877.727 1265.75 871.542 1266.4 865.031C1267.05 858.521 1269.65 852.987 1274.21 848.43C1272.26 840.617 1270.96 833.13 1270.3 825.969C1269.65 818.156 1269.33 810.344 1269.33 802.531C1269.33 788.859 1269.98 775.188 1271.28 761.516C1272.58 747.844 1273.23 733.846 1273.23 719.523C1273.23 714.315 1272.91 709.107 1272.26 703.898C1271.61 698.039 1271.28 692.505 1271.28 687.297C1271.28 682.089 1272.26 679.81 1274.21 680.461C1276.82 680.461 1278.12 678.833 1278.12 675.578C1278.12 671.021 1277.47 666.464 1276.16 661.906C1275.51 657.349 1274.86 652.792 1274.21 648.234C1272.91 637.167 1271.93 626.099 1271.28 615.031C1270.63 603.312 1270.3 591.594 1270.3 579.875C1270.3 572.714 1270.3 565.552 1270.3 558.391C1270.96 550.578 1272.26 543.091 1274.21 535.93C1270.3 530.07 1267.7 524.536 1266.4 519.328C1265.75 513.469 1265.1 508.26 1264.45 503.703L1262.49 489.055C1261.84 483.846 1259.89 478.638 1256.63 473.43C1255.98 472.779 1255.66 470.826 1255.66 467.57C1255.66 462.362 1256.96 458.456 1259.56 455.852C1256.31 444.784 1251.75 434.042 1245.89 423.625C1240.68 413.208 1237.43 401.815 1236.12 389.445C1228.96 385.539 1223.43 379.354 1219.52 370.891C1216.27 361.776 1214.64 353.638 1214.64 346.477C1214.64 338.013 1216.92 329.875 1221.48 322.062C1226.03 313.599 1233.2 309.367 1242.96 309.367C1246.87 309.367 1250.45 310.669 1253.7 313.273C1257.61 315.227 1261.19 317.831 1264.45 321.086C1268.35 323.69 1271.93 326.294 1275.19 328.898C1279.09 330.852 1283 331.828 1286.91 331.828C1289.51 331.828 1293.42 331.177 1298.62 329.875C1305.79 339.641 1312.95 348.755 1320.11 357.219C1327.92 365.031 1335.73 373.169 1343.55 381.633C1343.55 392.701 1345.5 402.792 1349.41 411.906C1353.31 421.021 1357.54 429.81 1362.1 438.273C1366.66 446.086 1370.57 453.898 1373.82 461.711C1377.73 469.523 1379.35 477.987 1378.7 487.102C1380.01 491.659 1382.61 494.914 1386.52 496.867C1390.42 498.82 1394 501.424 1397.26 504.68Z" fill="#D6D6CE"/>
</g>
<defs>
<clipPath id="clip0_516_576">
<rect width="2000" height="2000" rx="1000" fill="white"/>
</clipPath>
</defs>
</svg>
